<svg xmlns="http://www.w3.org/2000/svg" class="svg-inline--fa fa-external-link-alt fa-w-18 fa-2x" role="img" aria-hidden="true" viewBox="0 0 576 512" focusable="false" data-prefix="fas" data-icon="external-link-alt"><path class="" fill="currentColor" d="M 576 24 v 127.984 c 0 21.461 -25.96 31.98 -40.971 16.971 l -35.707 -35.709 l -243.523 243.523 c -9.373 9.373 -24.568 9.373 -33.941 0 l -22.627 -22.627 c -9.373 -9.373 -9.373 -24.569 0 -33.941 L 442.756 76.676 l -35.703 -35.705 C 391.982 25.9 402.656 0 424.024 0 H 552 c 13.255 0 24 10.745 24 24 Z M 407.029 270.794 l -16 16 A 23.999 23.999 0 0 0 384 303.765 V 448 H 64 V 128 h 264 a 24.003 24.003 0 0 0 16.97 -7.029 l 16 -16 C 376.089 89.851 365.381 64 344 64 H 48 C 21.49 64 0 85.49 0 112 v 352 c 0 26.51 21.49 48 48 48 h 352 c 26.51 0 48 -21.49 48 -48 V 287.764 c 0 -21.382 -25.852 -32.09 -40.971 -16.97 Z" /></svg>